<svg xmlns="http://www.w3.org/2000/svg" xmlns:xlink="http://www.w3.org/1999/xlink" version="1.1" x="0px" y="0px" viewBox="0 0 100 100" enable-background="new 0 0 100 100" xml:space="preserve"><path d="M85.75,95"></path><path d="M50,25c-13.807,0-25,11.193-25,25s11.193,25,25,25s25-11.193,25-25S63.807,25,50,25z M50,71.5  c-11.874,0-21.5-9.626-21.5-21.5S38.126,28.5,50,28.5S71.5,38.126,71.5,50S61.874,71.5,50,71.5z"></path><g><rect x="6.75" y="48.25" width="6.5" height="3.5"></rect><circle cx="6.75" cy="50" r="1.75"></circle><circle cx="13.25" cy="50" r="1.75"></circle></g><g><rect x="86.75" y="48.25" width="6.5" height="3.5"></rect><circle cx="86.75" cy="50" r="1.75"></circle><circle cx="93.25" cy="50" r="1.75"></circle></g><g><rect x="48.25" y="6.75" width="3.5" height="6.5"></rect><circle cx="50" cy="6.75" r="1.75"></circle><circle cx="50" cy="13.25" r="1.75"></circle></g><g><rect x="48.25" y="86.75" width="3.5" height="6.5"></rect><circle cx="50" cy="86.75" r="1.75"></circle><circle cx="50" cy="93.25" r="1.75"></circle></g><g><rect x="75.034" y="19.966" transform="matrix(0.7071 -0.7071 0.7071 0.7071 7.5736 61.7157)" width="6.5" height="3.5"></rect><circle cx="80.582" cy="19.418" r="1.75"></circle><circle cx="75.986" cy="24.014" r="1.75"></circle></g><g><rect x="18.466" y="76.534" transform="matrix(0.7071 -0.7071 0.7071 0.7071 -48.9949 38.2843)" width="6.5" height="3.5"></rect><circle cx="24.014" cy="75.986" r="1.75"></circle><circle cx="19.418" cy="80.582" r="1.75"></circle></g><g><rect x="75.034" y="76.534" transform="matrix(0.7071 0.7071 -0.7071 0.7071 78.2842 -32.4263)" width="6.5" height="3.5"></rect><circle cx="80.582" cy="80.582" r="1.75"></circle><circle cx="75.986" cy="75.986" r="1.75"></circle></g><g><rect x="18.466" y="19.966" transform="matrix(0.7071 0.7071 -0.7071 0.7071 21.7157 -8.9949)" width="6.5" height="3.5"></rect><circle cx="24.014" cy="24.014" r="1.75"></circle><circle cx="19.418" cy="19.418" r="1.75"></circle></g></svg>